<?xml version="1.0" encoding="UTF-8"?>
<!DOCTYPE svg PUBLIC "-//W3C//DTD SVG 1.1//EN" "http://www.w3.org/Graphics/SVG/1.1/DTD/svg11.dtd">
<!-- Creator: CorelDRAW -->
<svg xmlns="http://www.w3.org/2000/svg" xml:space="preserve" width="0.998661in" height="0.79926in" version="1.1" style="shape-rendering:geometricPrecision; text-rendering:geometricPrecision; image-rendering:optimizeQuality; fill-rule:evenodd; clip-rule:evenodd"
viewBox="0 0 998.66 799.26"
 xmlns:xlink="http://www.w3.org/1999/xlink"
 xmlns:xodm="http://www.corel.com/coreldraw/odm/2003">
 <defs>
  <style type="text/css">
   <![CDATA[
    .fil1 {fill:#FBC150}
    .fil0 {fill:white}
   ]]>
  </style>
 </defs>
 <g id="Layer_x0020_1">
  <metadata id="CorelCorpID_0Corel-Layer"/>
  <g id="_2235386039536">
   <path class="fil0" d="M263.08 559.85c6.42,-27.67 29.2,-76.46 40.36,-104.75 6.68,-16.93 13.71,-33.43 20.44,-50.11 3.44,-8.53 6.5,-15.68 10.29,-25.04 6.33,-15.63 3.87,-19.81 14.93,-24.94 13.11,46.17 -10.39,78.35 -28.19,111.82l-57.83 93.02zm-69.12 -270.38c1.86,-1.49 1.94,-1.69 5.51,-3.27l28.43 -5.69c20.06,-3.7 91.11,-16.71 103.59,-15.5 -5.8,12.15 -10.36,30.58 -18.94,40.28 -45.75,-12.79 -70.22,-12.4 -118.59,-15.83zm256.41 -171.97c9.51,-18.94 75.25,-128.03 31.2,-116.24 -7.04,1.88 -15.14,12.12 -18.7,16.29 -21.33,24.95 -61.02,102.75 -76.82,133.66 -41.47,81.11 -23.19,70.39 -64.22,77.5l-230.2 41.17c-30.59,6.02 -106.57,9.28 -89.92,43.25 10.42,14.53 50.17,6.95 69.72,7.95 26.47,1.35 52.99,0.8 79.48,0.73 46.18,-0.12 108.88,-2.48 150.82,9.16l-147.94 362.05c-8.01,18.96 -18.42,40.21 -24.02,60.89 -7.12,26.3 1.56,52.5 29.28,44.15 28.37,-8.54 29.43,-63.07 55.78,-113.37 20.34,-38.82 40.11,-71.02 60.8,-107.65 38.71,-68.55 110.62,-163.14 82.78,-240.01 -4.58,-12.65 2.58,-19.31 7.55,-31.16 26.81,-63.94 12.92,-49.7 67.14,-56.88 47.54,-6.3 94.86,-12.71 142.67,-19.14 34.75,-4.67 276.55,-26.83 293.72,-22.35 11.35,2.96 17.37,10.64 29.16,0.61 7.06,-6.02 11.94,-18.63 6.84,-30.29 -5.84,-13.36 -17.14,-8.81 -28.33,-7.37 -12.1,1.56 -26.21,-1.09 -39.88,-0.18 -113.81,7.59 -178.47,12.85 -292.28,26.47l-138.76 18.43 44.13 -97.68z"/>
   <path class="fil0" d="M422.41 561.76c3.38,-24.13 23.52,-66 32.62,-88.58 4.59,-11.38 37.09,-88.2 -0.26,-73.11 -21.92,8.85 -68.28,115.52 -85.81,148.35 -13.52,25.31 -28.01,76.46 3.96,88.07 22.18,8.06 29.67,-6.63 36.93,-19.28 22.66,-39.43 123.6,-115.82 165.45,-124.17 -4.3,25.3 -17.11,49.44 0.83,73.44 23.4,31.3 48.08,-12.02 49.44,-13.48 17.76,-19.13 71.13,-71.39 91.46,-76.01 -12.53,95.93 70.65,50.62 127.21,46.81 14.52,-0.98 33.5,3.33 38.41,-14.2 5.04,-17.96 -8.79,-25.24 -23.11,-25.15 -36.25,0.22 -82.22,23.99 -85.3,6.58 -1,-5.63 -0.07,2.42 -0.43,-4.15 -0.63,-11.36 4.54,-48.99 -10.28,-59.78 -19.38,-14.11 -67.57,28.36 -83.37,42.9 -14.6,13.43 -32.82,34.26 -50.22,42.42 0.74,-26.78 12.25,-76.97 -22.41,-72.97 -9.08,1.05 -14.83,9.45 -33.71,18.37 -62.57,29.54 -141,99.11 -151.42,103.96z"/>
   <path class="fil1" d="M996.97 497.65c6.33,-12.51 -18.13,-38.7 -39.59,-27.24 -7.26,3.88 -7.01,5.83 -10.09,15.55 -6.35,20.04 -8.64,31.43 16.24,28.32 12.08,-1.5 30.68,-11.18 33.44,-16.63z"/>
  </g>
 </g>
</svg>
